<svg xmlns="http://www.w3.org/2000/svg" xmlns:xlink="http://www.w3.org/1999/xlink" width="124.666" height="32" viewBox="0 0 124.666 32"><defs><style>.a{fill:url(#a);}.b{fill:#414042;}</style><linearGradient id="a" x1="0.004" y1="0.757" x2="0.978" y2="0.238" gradientUnits="objectBoundingBox"><stop offset="0" stop-color="#f37021"/><stop offset="0.168" stop-color="#f47421"/><stop offset="0.387" stop-color="#f58022"/><stop offset="0.636" stop-color="#f79323"/><stop offset="0.903" stop-color="#fbad26"/><stop offset="1" stop-color="#fdb927"/></linearGradient></defs><path class="a" d="M14.265,9.913,1.694,16.852l14.091,7.989a.476.476,0,0,1,.229.391l0,12a.474.474,0,0,1-.233.391l-.754.418a.485.485,0,0,1-.225.053h-.015a.491.491,0,0,1-.24-.049l-.754-.421a.479.479,0,0,1-.229-.391l0-10.7a.3.3,0,0,0-.124-.207L1.011,19.275,1,33.3a1.113,1.113,0,0,0,.5.866l12.8,7.511a1.065,1.065,0,0,0,.987,0l12.627-7.522a1.127,1.127,0,0,0,.492-.869V19.125L20,24.179a.46.46,0,0,1-.221.056h0a.435.435,0,0,1-.236-.064l-.732-.455a.512.512,0,0,1-.221-.4v-.869a.49.49,0,0,1,.229-.391l.008,0a.383.383,0,0,1,.105-.1l8.645-5.2-12.3-6.837a1.078,1.078,0,0,0-.5-.117,1.051,1.051,0,0,0-.5.113" transform="translate(-1 -9.8)"/><path class="b" d="M1580.886,210.609h-.011a1.7,1.7,0,0,1-1.7-1.914V196.6h-3.07v12.293c0,3.352,1.877,4.448,4.786,4.463Z" transform="translate(-1516.822 -189.551)"/><path class="b" d="M963.779,218.217a5.85,5.85,0,0,0-3.254-.849A5.753,5.753,0,0,0,954.5,223.4a5.643,5.643,0,0,0,6.051,5.979,6.341,6.341,0,0,0,3.333-.849v-2.912a4.623,4.623,0,0,1-2.9,1.03,3.145,3.145,0,0,1-3.386-3.3,3.041,3.041,0,0,1,3.258-3.244,4.35,4.35,0,0,1,2.92,1.056Zm6.884-.849a6,6,0,1,0,6,6,5.763,5.763,0,0,0-6-6m0,9.325c-1.667,0-2.872-1.264-2.872-3.323s1.2-3.323,2.872-3.323,2.872,1.264,2.872,3.323-1.2,3.323-2.872,3.323m18.367,1.626a7.229,7.229,0,0,0,3.716.928c2.665,0,4.538-1.135,4.538-3.633,0-2.059-1-3.195-3.949-3.738-1.077-.256-1.486-.566-1.486-1.158,0-.539.435-.977,1.46-.977a5.617,5.617,0,0,1,3.255,1.109v-2.757a6.392,6.392,0,0,0-3.359-.849c-2.458,0-4.358,1.158-4.358,3.685,0,2.086,1.077,3.116,3.664,3.583,1.257.256,1.745.539,1.745,1.237,0,.72-.642,1-1.588,1a6.606,6.606,0,0,1-3.641-1.286v2.852Zm-4.985.8h3.086V217.6h-3.086ZM985.588,213a1.55,1.55,0,1,0,1.543,1.55,1.546,1.546,0,0,0-1.543-1.55m51.477,4.368a6,6,0,1,0,6,6,5.765,5.765,0,0,0-6-6m0,9.325c-1.667,0-2.871-1.264-2.871-3.323s1.2-3.323,2.871-3.323,2.872,1.264,2.872,3.323-1.205,3.323-2.872,3.323m-38.745,1.626a7.228,7.228,0,0,0,3.716.928c2.669,0,4.538-1.135,4.538-3.633,0-2.059-1-3.195-3.949-3.738-1.077-.256-1.486-.566-1.486-1.158,0-.539.435-.977,1.464-.977a5.616,5.616,0,0,1,3.254,1.109v-2.757a6.391,6.391,0,0,0-3.359-.849c-2.459,0-4.358,1.158-4.358,3.685,0,2.086,1.078,3.116,3.664,3.583,1.258.256,1.745.539,1.745,1.237,0,.72-.642,1-1.588,1a6.6,6.6,0,0,1-3.641-1.286Zm9.575.8h3.085V217.6H1007.9ZM1009.438,213a1.55,1.55,0,1,0,1.543,1.55,1.547,1.547,0,0,0-1.543-1.55m17.293,8.932c0-1.211-.536-1.829-1.742-1.829a5.155,5.155,0,0,0-2.151.438,3.121,3.121,0,0,1,.229,1.184v7.389h-3.1v-7.182c0-1.211-.563-1.829-1.742-1.829a6.389,6.389,0,0,0-1.922.283v8.729h-3.074V218.379a14.746,14.746,0,0,1,5.15-1,5.066,5.066,0,0,1,3.153.9,8.839,8.839,0,0,1,3.87-.9c2.718,0,4.433,1.056,4.433,4.428v7.31h-3.1v-7.182Z" transform="translate(-918.397 -205.373)"/></svg>